<svg width="60" height="60" viewBox="0 0 60 60" fill="none" xmlns="http://www.w3.org/2000/svg">
<path d="M47.0419 16.7236L40.3276 16.6488L40.327 18.4431L46.1349 18.5083L46.1355 56.2907H13.654V18.1448L19.2383 18.2069V16.4133L12.7673 16.3409C12.5222 16.3463 12.2968 16.4318 12.127 16.6004C11.9566 16.769 11.8609 16.9986 11.8609 17.2378V57.1875C11.8609 57.6832 12.2621 58.0844 12.7578 58.0844H47.033C47.5286 58.0844 47.9298 57.6832 47.9298 57.1875V17.621C47.9292 17.1295 47.5334 16.7296 47.0419 16.7236Z" fill="#1E4BD2"/>
<path d="M38.534 16.6285L21.032 16.433L21.0314 18.2273L38.5334 18.4228L38.534 18.5083V16.6285Z" fill="#1E4BD2"/>
<path fill-rule="evenodd" clip-rule="evenodd" d="M40.3276 16.6488V12.249C40.3276 6.43449 35.5965 1.70459 29.7821 1.70459C23.9682 1.70459 19.2383 6.43509 19.2383 12.249V16.4133V18.2069V20.8933C18.0013 21.298 17.0984 22.4496 17.0984 23.8205C17.0984 25.5263 18.4861 26.9134 20.1913 26.9134C21.8965 26.9134 23.2842 25.5257 23.2842 23.8205C23.2842 22.4083 22.327 21.2269 21.0314 20.858V18.2273L21.032 16.433V12.249C21.032 7.424 24.9571 3.49826 29.7821 3.49826C34.6076 3.49826 38.534 7.424 38.534 12.249V16.6285V18.5083L38.5334 20.8759C37.267 21.2633 36.3373 22.4292 36.3373 23.8205C36.3373 25.5263 37.725 26.9134 39.4302 26.9134C41.1354 26.9134 42.5231 25.5257 42.5231 23.8205C42.5231 22.4292 41.5934 21.2628 40.327 20.8759V18.4431L40.3276 16.6488ZM20.1913 22.5213C20.9076 22.5213 21.4905 23.1042 21.4905 23.8205C21.4905 24.5368 20.9076 25.1197 20.1913 25.1197C19.4751 25.1197 18.8921 24.5368 18.8921 23.8205C18.8921 23.1042 19.4751 22.5213 20.1913 22.5213ZM39.4308 22.5213C40.1471 22.5213 40.73 23.1042 40.73 23.8205C40.73 24.5368 40.1471 25.1197 39.4308 25.1197C38.7145 25.1197 38.1316 24.5368 38.1316 23.8205C38.1316 23.1042 38.7145 22.5213 39.4308 22.5213Z" fill="#00AAFF"/>
</svg>
