<svg width="60" height="60" viewBox="0 0 60 60" fill="none" xmlns="http://www.w3.org/2000/svg">
<path fill-rule="evenodd" clip-rule="evenodd" d="M35.5134 47.6963L34.5088 46.295C32.0695 48.1632 27.0289 49.3906 21.6095 49.3906C13.1661 49.3906 7.28218 46.6053 7.28218 44.1059C7.28218 44.0582 7.27563 44.0118 7.26789 43.9665C7.27563 43.9206 7.28218 43.8748 7.28218 43.8271V37.5889C9.88466 39.8526 15.1921 41.3354 21.6095 41.3354C25.0886 41.3354 28.2724 40.8596 31.0958 39.9312L30.4597 38.3196C27.8346 39.1695 24.8647 39.6048 21.6095 39.6048C13.1661 39.6048 7.28218 36.8207 7.28218 34.3224C7.28218 34.2736 7.27563 34.2271 7.26789 34.1813C7.27563 34.1354 7.28218 34.089 7.28218 34.0407V27.896C9.88466 30.1596 15.1921 31.6431 21.6095 31.6431C24.0858 31.6431 26.5102 31.4055 28.6904 30.9541L28.6148 29.1865C26.4768 29.654 24.0804 29.9119 21.6095 29.9119C13.1661 29.9119 7.28218 27.1278 7.28218 24.6283C7.28218 24.5807 7.27563 24.5342 7.26789 24.489C7.27563 24.4431 7.28218 24.3973 7.28218 24.3496V18.5771C9.88347 20.8419 15.1909 22.326 21.6083 22.326C28.024 22.326 33.3296 20.8431 35.9321 18.5789V21.1611L37.6621 20.3881V15.3309C37.6621 15.3237 37.6633 15.3166 37.6633 15.3094C37.6633 11.3092 30.7611 8.29285 21.6077 8.29285C12.4734 8.29285 5.58193 11.2973 5.55335 15.285C5.55335 15.2891 5.55277 15.2931 5.55219 15.2971C5.55158 15.3012 5.55096 15.3055 5.55096 15.31V24.3502C5.55096 24.3979 5.55752 24.4443 5.56526 24.4896C5.55752 24.5354 5.55096 24.5813 5.55096 24.6289C5.55096 24.6987 5.55619 24.7671 5.56142 24.8357C5.56231 24.8474 5.5632 24.859 5.56407 24.8707L5.56381 24.8724C5.55735 24.9147 5.55096 24.9565 5.55096 25.0005V34.0407C5.55096 34.089 5.55752 34.1354 5.56526 34.1813C5.55752 34.2271 5.55096 34.2736 5.55096 34.3218C5.55096 34.4237 5.55871 34.5243 5.56704 34.6244C5.55692 34.6768 5.55096 34.731 5.55096 34.7863V43.8265C5.55096 43.8742 5.55752 43.9206 5.56526 43.9659C5.55752 44.0118 5.55096 44.0576 5.55096 44.1053C5.55096 48.1049 12.4544 51.1206 21.6089 51.1206C27.4243 51.1206 32.724 49.7938 35.5134 47.6963ZM35.9327 15.3029C35.922 12.804 30.0429 10.0235 21.6083 10.0235C13.1661 10.0235 7.28337 12.8094 7.28337 15.3094C7.28337 17.8095 13.1661 20.5954 21.6083 20.5954C30.0322 20.5954 35.9071 17.8214 35.9321 15.3255V15.3094L35.9324 15.3061L35.9327 15.3029Z" fill="#1E4BD2"/>
<path fill-rule="evenodd" clip-rule="evenodd" d="M55.5799 42.0918C55.4674 38.8896 54.4693 35.0317 52.7708 31.2292C51.0724 27.4232 48.8659 24.1037 46.5576 21.8823C44.0754 19.493 41.701 18.6182 39.8632 19.4103C39.8483 19.4162 39.8329 19.4186 39.818 19.4252L37.6621 20.3881L35.9321 21.1611L31.5668 23.1109L31.3096 23.2241C29.5391 24.0155 28.6446 26.1976 28.6148 29.1865L28.6904 30.9541C28.8899 33.1522 29.4789 35.6648 30.4597 38.3196L31.0958 39.9312C31.2095 40.2021 31.3268 40.4743 31.4489 40.747C32.3744 42.8183 33.4148 44.6794 34.5088 46.295L35.5134 47.6963C38.0099 50.9372 40.6958 52.8477 42.9451 52.8477C43.4579 52.8477 43.9492 52.7488 44.4089 52.5434L52.8863 48.7564C52.8947 48.7528 52.9036 48.7504 52.912 48.7468C54.7551 47.9244 55.7026 45.5607 55.5799 42.0918ZM43.6955 50.9676L43.9402 50.855L49.2363 48.4908C48.2555 48.0334 47.2252 47.3033 46.1729 46.2915C43.8646 44.0701 41.6582 40.7524 39.9597 36.9481C38.2606 33.1421 37.2625 29.283 37.15 26.0814C37.0982 24.6254 37.2381 23.367 37.5514 22.3326L32.0123 24.8058C29.735 25.8236 29.5897 32.3322 33.0289 40.0407C36.4717 47.7469 41.4092 51.9824 43.6955 50.9676ZM52.2057 47.1663L52.2098 47.1651C53.3467 46.6541 53.9452 44.8276 53.8505 42.1525C53.7451 39.1677 52.8006 35.5385 51.1903 31.9343C49.5805 28.3266 47.5093 25.1995 45.3576 23.1288C43.8164 21.6459 42.3835 20.8532 41.2877 20.8532C41.0114 20.8532 40.7571 20.9039 40.5266 21.0063C39.3856 21.5149 38.7853 23.342 38.8794 26.0207C38.9848 29.0055 39.9299 32.6353 41.5402 36.2424C43.1494 39.8478 45.2212 42.9737 47.3729 45.0444C49.2994 46.8989 51.0598 47.6725 52.1997 47.1687L52.2057 47.1663Z" fill="#1E4BD2"/>
<path fill-rule="evenodd" clip-rule="evenodd" d="M55.5799 42.0918C55.4674 38.8896 54.4693 35.0317 52.7708 31.2292C51.0724 27.4232 48.8659 24.1037 46.5576 21.8823C44.0754 19.493 41.701 18.6182 39.8632 19.4103C39.8483 19.4162 39.8329 19.4186 39.818 19.4252L37.6621 20.3881L35.9321 21.1611L31.5668 23.1109L31.3096 23.2241C29.5391 24.0155 28.6446 26.1976 28.6148 29.1865L28.6904 30.9541C28.8899 33.1522 29.4789 35.6648 30.4597 38.3196L31.0958 39.9312C31.2095 40.2021 31.3268 40.4743 31.4489 40.747C32.3744 42.8183 33.4148 44.6794 34.5088 46.295L35.5134 47.6963C38.0099 50.9372 40.6958 52.8477 42.9451 52.8477C43.4579 52.8477 43.9492 52.7488 44.4089 52.5434L52.8863 48.7564C52.8947 48.7528 52.9036 48.7504 52.912 48.7468C54.7551 47.9244 55.7026 45.5607 55.5799 42.0918ZM43.6955 50.9676L43.9402 50.855L49.2363 48.4908C48.2555 48.0334 47.2252 47.3033 46.1729 46.2915C43.8646 44.0701 41.6582 40.7524 39.9597 36.9481C38.2606 33.1421 37.2625 29.283 37.15 26.0814C37.0982 24.6254 37.2381 23.367 37.5514 22.3326L32.0123 24.8058C29.735 25.8236 29.5897 32.3322 33.0289 40.0407C36.4717 47.7469 41.4092 51.9824 43.6955 50.9676ZM52.2057 47.1663L52.2098 47.1651C53.3467 46.6541 53.9452 44.8276 53.8505 42.1525C53.7451 39.1677 52.8006 35.5385 51.1903 31.9343C49.5805 28.3266 47.5093 25.1995 45.3576 23.1288C43.8164 21.6459 42.3835 20.8532 41.2877 20.8532C41.0114 20.8532 40.7571 20.9039 40.5266 21.0063C39.3856 21.5149 38.7853 23.342 38.8794 26.0207C38.9848 29.0055 39.9299 32.6353 41.5402 36.2424C43.1494 39.8478 45.2212 42.9737 47.3729 45.0444C49.2994 46.8989 51.0598 47.6725 52.1997 47.1687L52.2057 47.1663Z" fill="#00AAFF"/>
</svg>
