<svg width="61" height="60" viewBox="0 0 61 60" fill="none" xmlns="http://www.w3.org/2000/svg">
<path d="M25.163 43.2995C29.5994 43.2995 33.2089 39.69 33.2089 35.2536C33.2089 30.8173 29.5994 27.2078 25.163 27.2078C20.7266 27.2078 17.1171 30.8173 17.1171 35.2536C17.1171 39.69 20.7266 43.2995 25.163 43.2995ZM25.163 29.0015C28.6105 29.0015 31.4152 31.8062 31.4152 35.2536C31.4152 38.7011 28.6105 41.5058 25.163 41.5058C21.7155 41.5058 18.9108 38.7011 18.9108 35.2536C18.9108 31.8062 21.7155 29.0015 25.163 29.0015Z" fill="#00AAFF"/>
<path d="M8.30114 43.2995C8.7968 43.2995 9.19798 42.8977 9.19798 42.4027V28.104C9.19798 27.6083 8.7968 27.2072 8.30114 27.2072C7.80548 27.2072 7.4043 27.6083 7.4043 28.104V42.4027C7.4043 42.8977 7.80548 43.2995 8.30114 43.2995Z" fill="#00AAFF"/>
<path d="M41.754 43.2995C42.2491 43.2995 42.6509 42.8977 42.6509 42.4027V28.104C42.6509 27.6083 42.2491 27.2072 41.754 27.2072C41.259 27.2072 40.8572 27.6083 40.8572 28.104V42.4027C40.8572 42.8977 41.259 43.2995 41.754 43.2995Z" fill="#00AAFF"/>
<path d="M55.9032 12.1378H13.7402C13.2446 12.1378 12.8434 12.539 12.8434 13.0347V17.2594H9.01924C8.52359 17.2594 8.1224 17.6606 8.1224 18.1562V22.8581H3.8875C3.39185 22.8581 2.99066 23.2593 2.99066 23.7549V46.753C2.99066 47.248 3.39185 47.6498 3.8875 47.6498H46.0517C46.5467 47.6498 46.9485 47.248 46.9485 46.753V42.0523H51.1828C51.6779 42.0523 52.0797 41.6505 52.0797 41.1555V36.929H55.9032C56.3983 36.929 56.8001 36.5272 56.8001 36.0321V13.0347C56.8001 12.539 56.3983 12.1378 55.9032 12.1378ZM45.1549 45.8567H4.78435V24.6518H45.1549V45.8567ZM50.286 40.2586H46.9485V23.7549C46.9485 23.2593 46.5467 22.8581 46.0517 22.8581H9.91608V19.0531H50.2866V40.2586H50.286ZM55.0064 35.1353H52.0797V18.1562C52.0797 17.6606 51.6779 17.2594 51.1828 17.2594H14.6371V13.9315H55.0064V35.1353Z" fill="#1E4BD2"/>
</svg>
