<svg width="60" height="60" viewBox="0 0 60 60" fill="none" xmlns="http://www.w3.org/2000/svg">
<path d="M7.35847 46.2169C6.88026 46.2169 6.49316 46.604 6.49316 47.0823C6.49316 47.5605 6.88026 47.9476 7.35847 47.9476H51.8776C52.3558 47.9476 52.7429 47.5605 52.7429 47.0823C52.7429 46.604 52.3558 46.2169 51.8776 46.2169H47.0484V20.6757H51.8776C52.3558 20.6757 52.7429 20.2886 52.7429 19.8104C52.7429 19.3322 52.3558 18.9451 51.8776 18.9451H12.3163C12.2389 18.9225 12.1591 18.9064 12.0745 18.9064C11.9899 18.9064 11.9095 18.9225 11.8327 18.9451H7.35847C6.88026 18.9451 6.49316 19.3322 6.49316 19.8104C6.49316 20.2886 6.88026 20.6757 7.35847 20.6757H11.2128V46.2169H7.35847ZM24.6587 46.2169V20.6757H34.2206V46.2169H24.6587ZM45.3178 46.2169H35.9512V20.6757H45.3178V46.2169ZM12.9362 20.6757H22.9281V46.2169H12.9362V20.6757Z" fill="#00AAFF"/>
<path d="M57.1248 53.2645H2.11116C1.63295 53.2645 1.24585 53.6516 1.24585 54.1298C1.24585 54.608 1.63295 54.9951 2.11116 54.9951H57.1248C57.603 54.9951 57.9901 54.608 57.9901 54.1298C57.9901 53.6516 57.603 53.2645 57.1248 53.2645Z" fill="#1E4BD2"/>
<path d="M57.8715 18.938L30.3644 3.22063C30.0994 3.06937 29.773 3.06877 29.508 3.21944L1.82045 18.9368C1.40477 19.1726 1.25946 19.7008 1.49529 20.1165C1.65489 20.3976 1.9473 20.5548 2.24864 20.5548C2.39335 20.5548 2.53985 20.5185 2.67504 20.4423L29.9338 4.96793L57.0133 20.4405C57.4266 20.6763 57.9554 20.534 58.1937 20.1183C58.4307 19.7038 58.2866 19.1756 57.8715 18.938Z" fill="#1E4BD2"/>
</svg>
