<svg width="60" height="60" viewBox="0 0 60 60" fill="none" xmlns="http://www.w3.org/2000/svg">
<path d="M29.3598 30.1558C22.0853 30.1558 16.1667 36.0737 16.1667 43.3482C16.1667 43.8432 16.5679 44.245 17.0636 44.245H41.6554C42.1504 44.245 42.5522 43.8432 42.5522 43.3482C42.5522 36.0737 36.6337 30.1558 29.3598 30.1558ZM17.9957 42.4514C18.4549 36.5837 23.3767 31.9494 29.3598 31.9494C35.3429 31.9494 40.2647 36.5837 40.7233 42.4514H17.9957Z" fill="#1E4BD2"/>
<path d="M29.1447 28.9713C33.4154 28.9713 36.8898 25.497 36.8898 21.2263C36.8898 16.9555 33.4148 13.4812 29.1447 13.4812C24.874 13.4812 21.3997 16.9555 21.3997 21.2263C21.3997 25.497 24.874 28.9713 29.1447 28.9713ZM29.1447 15.2749C32.4259 15.2749 35.0961 17.9444 35.0961 21.2263C35.0961 24.5075 32.4259 27.1777 29.1447 27.1777C25.8629 27.1777 23.1933 24.5081 23.1933 21.2263C23.1933 17.9444 25.8629 15.2749 29.1447 15.2749Z" fill="#1E4BD2"/>
<path d="M11.8262 35.1045C13.2976 35.1045 14.7427 35.4967 16.0054 36.2393C16.4323 36.4916 16.9824 36.3475 17.2329 35.9212C17.484 35.4943 17.3417 34.9442 16.9142 34.6931C15.3765 33.7885 13.6169 33.3108 11.8262 33.3108C6.29152 33.3108 1.78882 37.8135 1.78882 43.3482C1.78882 43.8432 2.19 44.245 2.68565 44.245H14.0527C14.5484 44.245 14.9496 43.8432 14.9496 43.3482C14.9496 42.8531 14.5484 42.4513 14.0527 42.4513H3.63092C4.07933 38.3259 7.58356 35.1045 11.8262 35.1045Z" fill="#00AAFF"/>
<path d="M11.6672 31.8788C14.9681 31.8788 17.6545 29.1931 17.6545 25.8916C17.6545 22.59 14.9687 19.9043 11.6672 19.9043C8.36565 19.9043 5.67993 22.59 5.67993 25.8916C5.67993 29.1925 8.36565 31.8788 11.6672 31.8788ZM11.6672 21.698C13.9792 21.698 15.8608 23.5789 15.8608 25.8916C15.8608 28.2036 13.9798 30.0852 11.6672 30.0852C9.35456 30.0852 7.4736 28.2042 7.4736 25.8916C7.4736 23.5789 9.35456 21.698 11.6672 21.698Z" fill="#00AAFF"/>
<path d="M46.966 33.3108C45.1759 33.3108 43.4163 33.7891 41.878 34.6931C41.4505 34.9442 41.3082 35.4937 41.5593 35.9206C41.8104 36.3487 42.3617 36.4904 42.7868 36.2393C44.0501 35.4967 45.4952 35.1045 46.966 35.1045C51.2086 35.1045 54.7129 38.3259 55.1613 42.4513H44.7413C44.2462 42.4513 43.8444 42.8531 43.8444 43.3482C43.8444 43.8432 44.2462 44.245 44.7413 44.245H56.1065C56.6016 44.245 57.0034 43.8432 57.0034 43.3482C57.0034 37.8135 52.5007 33.3108 46.966 33.3108Z" fill="#00AAFF"/>
<path d="M47.1256 31.8788C50.4265 31.8788 53.1128 29.1931 53.1128 25.8916C53.1128 22.59 50.4271 19.9043 47.1256 19.9043C43.824 19.9043 41.1377 22.59 41.1377 25.8916C41.1383 29.1925 43.824 31.8788 47.1256 31.8788ZM47.1256 21.698C49.4376 21.698 51.3192 23.5789 51.3192 25.8916C51.3192 28.2036 49.4382 30.0852 47.1256 30.0852C44.8129 30.0852 42.9314 28.2042 42.9314 25.8916C42.932 23.5789 44.8129 21.698 47.1256 21.698Z" fill="#00AAFF"/>
</svg>
