<svg width="60" height="60" viewBox="0 0 60 60" fill="none" xmlns="http://www.w3.org/2000/svg">
<path d="M54.133 19.7376L29.5813 3.36978C29.2799 3.16889 28.8877 3.16889 28.5864 3.36978L4.03464 19.7376C3.78532 19.9038 3.63525 20.1842 3.63525 20.4838C3.63525 20.7833 3.78473 21.0637 4.03464 21.2299L7.76368 23.716V36.8175C7.76368 37.123 7.91913 37.4076 8.17622 37.5727L28.743 50.7579C28.8907 50.8524 29.0587 50.8996 29.2273 50.8996C29.4037 50.8996 29.5807 50.8476 29.7325 50.7436L40.4629 43.423V48.5278L36.4654 56.5228C36.3267 56.8008 36.3416 57.1314 36.5042 57.3957C36.6674 57.6593 36.9568 57.8208 37.2671 57.8208H45.4516C45.7625 57.8208 46.0513 57.6593 46.2145 57.3957C46.3772 57.1314 46.3927 56.8008 46.2534 56.5228L42.2559 48.5278V42.1991L49.0581 37.5583C49.3026 37.3915 49.4491 37.1141 49.4491 36.8175V24.3521L54.1324 21.2299C54.3817 21.0637 54.5318 20.7833 54.5318 20.4838C54.5318 20.1842 54.3823 19.9038 54.133 19.7376ZM38.7188 56.0271L41.3597 50.7453L44.0006 56.0271H38.7188ZM29.2118 48.9278L9.55735 36.3272V24.9117L28.5864 37.5984C28.737 37.6988 28.9104 37.749 29.0838 37.749C29.2572 37.749 29.4306 37.6988 29.5813 37.5984L40.4629 30.3436V41.2515L29.2118 48.9278ZM47.6561 36.344L42.2565 40.0282V29.1478L47.6561 25.5479V36.344ZM48.2414 23.0021C48.1093 23.0511 47.9927 23.1294 47.8982 23.2311L41.3597 27.5903L29.5813 19.7376C29.1681 19.4626 28.6121 19.5744 28.3377 19.9863C28.0632 20.3983 28.1744 20.9555 28.5864 21.2299L39.743 28.6677L29.0838 35.7742L6.14878 20.4838L29.0838 5.19395L52.0189 20.4838L48.2414 23.0021Z" fill="#1E4BD2"/>
<path fill-rule="evenodd" clip-rule="evenodd" d="M42.2559 42.1991L42.2565 40.0282V29.1478L41.3597 27.5903L29.5813 19.7376C29.1681 19.4626 28.6121 19.5744 28.3377 19.9863C28.0632 20.3983 28.1744 20.9555 28.5864 21.2299L39.743 28.6677L40.4629 30.3436V41.2515V43.423V48.5278L36.4654 56.5228C36.3267 56.8008 36.3416 57.1314 36.5042 57.3957C36.6674 57.6593 36.9568 57.8208 37.2671 57.8208H45.4516C45.7625 57.8208 46.0513 57.6593 46.2145 57.3957C46.3772 57.1314 46.3927 56.8008 46.2534 56.5228L42.2559 48.5278V42.1991ZM41.3597 50.7453L38.7188 56.0271H44.0006L41.3597 50.7453Z" fill="#00AAFF"/>
</svg>
