<svg width="60" height="60" viewBox="0 0 60 60" fill="none" xmlns="http://www.w3.org/2000/svg">
<path d="M50.1467 2.90637H9.64442C6.01523 2.90637 3.06226 5.85935 3.06226 9.48854V37.3633C3.06226 40.9919 6.01463 43.9443 9.64442 43.9443H24.0344V55.089H12.8808C12.3851 55.089 11.984 55.4902 11.984 55.9858C11.984 56.4815 12.3851 56.8826 12.8808 56.8826H24.9313H34.8592H46.9097C47.4053 56.8826 47.8065 56.4815 47.8065 55.9858C47.8065 55.4902 47.4053 55.089 46.9097 55.089H35.7561V43.9443H50.1461C53.7741 43.9443 56.7258 40.9919 56.7258 37.3633V9.48854C56.7264 5.85935 53.7746 2.90637 50.1467 2.90637ZM9.64442 4.70004H50.1467C52.7857 4.70004 54.9328 6.84826 54.9328 9.48854V30.6239H4.85652V9.48854C4.85652 6.84766 7.00414 4.70004 9.64442 4.70004ZM33.963 55.089H25.8287V43.9443H33.963V55.089ZM50.1467 42.1506H34.8598H24.9319H9.64502C7.00474 42.1506 4.85652 40.003 4.85652 37.3633V32.4182H54.9328V37.3633C54.9328 40.003 52.7857 42.1506 50.1467 42.1506Z" fill="#1E4BD2"/>
<path d="M29.8956 34.1127C28.0439 34.1127 26.5378 35.6182 26.5378 37.468C26.5378 39.3179 28.0439 40.8234 29.8956 40.8234C31.7461 40.8234 33.2509 39.3179 33.2509 37.468C33.2509 35.6182 31.7461 34.1127 29.8956 34.1127ZM29.8956 39.0297C29.0334 39.0297 28.3315 38.329 28.3315 37.468C28.3315 36.6071 29.0328 35.9063 29.8956 35.9063C30.7565 35.9063 31.4573 36.6071 31.4573 37.468C31.4573 38.329 30.7565 39.0297 29.8956 39.0297Z" fill="#00AAFF"/>
</svg>
