<svg width="60" height="60" viewBox="0 0 60 60" fill="none" xmlns="http://www.w3.org/2000/svg">
<path d="M52.0425 12.9597H42.0067L41.0682 9.53623C41.0017 9.29126 40.8334 9.08643 40.607 8.97203C40.3806 8.85763 40.1159 8.84386 39.8799 8.9349L29.1877 13.0388C29.0757 12.9885 28.9524 12.9597 28.8218 12.9597H15.9711C15.7273 12.9597 15.4937 13.0592 15.3242 13.2346L7.40511 21.4472C7.23381 21.582 7.11822 21.7712 7.07809 21.9815C7.0733 22.003 7.0721 22.0258 7.06911 22.048C7.06611 22.0767 7.06132 22.1043 7.06072 22.1336C7.06012 22.145 7.05713 22.1564 7.05713 22.1677V22.1701V50.2266C7.05713 50.7225 7.45901 51.125 7.95553 51.125H48.0344C48.5303 51.125 48.9328 50.7225 48.9328 50.2266V47.1193H52.0419C52.5378 47.1193 52.9403 46.7168 52.9403 46.2209V13.8581C52.9409 13.3616 52.5384 12.9597 52.0425 12.9597ZM42.4236 21.2723H12.7524L39.5978 10.9671L42.4236 21.2723ZM16.3526 14.7565H24.7131L11.4401 19.8517L16.3526 14.7565ZM47.136 49.3282H8.85393V23.0691H47.136V49.3282ZM51.1441 45.3225H48.9328V22.1707C48.9328 21.6742 48.5303 21.2723 48.0344 21.2723H44.2857L42.499 14.7565H51.1435L51.1441 45.3225Z" fill="#1E4BD2"/>
<path fill-rule="evenodd" clip-rule="evenodd" d="M41.0682 9.53623L42.0067 12.9597L42.499 14.7565L44.2857 21.2723H42.4236L39.5978 10.9671L12.7524 21.2723H8.5L11.4401 19.8517L24.7131 14.7565L29.1877 13.0388L39.8799 8.9349C40.1159 8.84386 40.3806 8.85763 40.607 8.97203C40.8334 9.08643 41.0017 9.29126 41.0682 9.53623Z" fill="#00AAFF"/>
</svg>
