<svg width="60" height="60" viewBox="0 0 60 60" fill="none" xmlns="http://www.w3.org/2000/svg">
<path d="M50.8228 15.0082H40.9732C42.2473 13.0771 42.4452 11.0239 41.3678 9.63142C40.8069 8.90499 39.9597 8.45 38.9176 8.31726C37.176 8.09365 35.0696 8.79318 33.2777 10.1821C32.2727 10.9581 31.4709 11.8681 30.9095 12.8164C30.3451 11.8627 29.5379 10.9492 28.546 10.1833C25.5596 7.87124 22.0033 7.6285 20.4476 9.63202C19.3732 11.0251 19.5717 13.0783 20.844 15.0088H10.995C10.4993 15.0088 10.0981 15.41 10.0981 15.9057V25.341C10.0981 25.8366 10.4993 26.2378 10.995 26.2378H13.0655V49.8018C13.0655 50.2969 13.4667 50.6987 13.9623 50.6987H47.8585C48.3535 50.6987 48.7553 50.2969 48.7553 49.8018V26.2372H50.8228C51.3178 26.2372 51.7196 25.836 51.7196 25.3404V15.9051C51.7196 15.4094 51.3178 15.0082 50.8228 15.0082ZM34.3754 11.6009C35.7805 10.5121 37.4378 9.93575 38.6898 10.0966C39.2572 10.1689 39.6799 10.3812 39.9478 10.7286C40.6784 11.6732 40.1242 13.4705 38.6785 15.0088H31.9151C32.2021 13.8639 33.1031 12.5832 34.3754 11.6009ZM21.8664 10.7292C22.7579 9.5812 25.3664 9.98956 27.4483 11.6015C28.7176 12.5826 29.6198 13.8573 29.9074 15.0082H23.1363C21.6936 13.4699 21.14 11.672 21.8664 10.7292ZM11.8918 16.8019H30.0132V24.4435H11.8918V16.8019ZM14.8591 26.2372H30.0132V48.9044H14.8591V26.2372ZM46.9616 48.9044H31.8069V26.2372H46.9616V48.9044ZM49.926 24.4435H31.8069V16.8019H39.0587H39.0599H49.926V24.4435Z" fill="#1E4BD2"/>
<path fill-rule="evenodd" clip-rule="evenodd" d="M41.3678 9.63142C42.4452 11.0239 42.2473 13.0771 40.9732 15.0082L38.6785 15.0088C40.1242 13.4705 40.6784 11.6732 39.9478 10.7286C39.6799 10.3812 39.2572 10.1689 38.6898 10.0966C37.4378 9.93575 35.7805 10.5121 34.3754 11.6009C33.1031 12.5832 32.2021 13.8639 31.9151 15.0088L31.8069 16.8019V24.4435V26.2372V48.9044H30.0132V26.2372V24.4435V16.8019L29.9074 15.0082C29.6198 13.8573 28.7176 12.5826 27.4483 11.6015C25.3664 9.98956 22.7579 9.5812 21.8664 10.7292C21.14 11.672 21.6936 13.4699 23.1363 15.0082L20.844 15.0088C19.5717 13.0783 19.3732 11.0251 20.4476 9.63202C22.0033 7.6285 25.5596 7.87124 28.546 10.1833C29.5379 10.9492 30.3451 11.8627 30.9095 12.8164C31.4709 11.8681 32.2727 10.9581 33.2777 10.1821C35.0696 8.79318 37.176 8.09365 38.9176 8.31726C39.9597 8.45 40.8069 8.90499 41.3678 9.63142Z" fill="#00AAFF"/>
</svg>
