<svg width="100" height="71" viewBox="0 0 100 71" fill="none" xmlns="http://www.w3.org/2000/svg">
<g clip-path="url(#clip0_23_95)">
<path d="M97.9403 10.9555C96.7871 6.67213 93.4098 3.29488 89.1265 2.14167C81.3011 0 49.9998 0 49.9998 0C49.9998 0 18.6984 0 10.8731 2.0593C6.67213 3.21251 3.21251 6.67213 2.0593 10.9555C0 18.7808 0 35.0081 0 35.0081C0 35.0081 0 51.3177 2.0593 59.0607C3.21251 63.3441 6.58976 66.7213 10.8731 67.8745C18.7808 70.0162 49.9998 70.0162 49.9998 70.0162C49.9998 70.0162 81.3011 70.0162 89.1265 67.9569C93.4098 66.8037 96.7871 63.4264 97.9403 59.1431C99.9996 51.3177 99.9996 35.0905 99.9996 35.0905C99.9996 35.0905 100.082 18.7808 97.9403 10.9555Z" fill="white"/>
<path d="M66.0623 35.0081L40.0328 20.0164V49.9998L66.0623 35.0081Z" fill="#00AAFF"/>
</g>
<defs>
<clipPath id="clip0_23_95">
<rect width="100" height="70.0162" fill="white"/>
</clipPath>
</defs>
</svg>
