<svg width="60" height="60" viewBox="0 0 60 60" fill="none" xmlns="http://www.w3.org/2000/svg">
<path d="M30.8228 31.6567C17.952 31.6567 7.4812 42.2622 7.4812 55.2976C7.4812 55.7937 7.8828 56.1953 8.37896 56.1953H53.2667C53.7629 56.1953 54.1645 55.7937 54.1645 55.2976C54.1645 42.2622 43.6937 31.6567 30.8228 31.6567ZM32.0821 41.2327L33.7998 54.3998H27.3198L29.1973 41.2327H32.0821ZM33.5161 33.6287V39.4372H28.1296V33.6287C29.0124 33.5162 29.9101 33.4522 30.8228 33.4522C31.7356 33.4522 32.6333 33.5162 33.5161 33.6287ZM26.3341 33.934V40.335C26.3341 40.8311 26.7357 41.2327 27.2318 41.2327H27.3838L25.5063 54.3998H9.29467C9.69866 44.3144 16.8807 35.9737 26.3341 33.934ZM35.6049 54.3998C35.6037 54.3825 35.6055 54.3657 35.6031 54.3484L33.8926 41.2327H34.4139C34.91 41.2327 35.3116 40.8311 35.3116 40.335V33.934C44.765 35.9737 51.947 44.3144 52.351 54.3998H35.6049Z" fill="#00AAFF"/>
<path d="M30.2215 28.429C37.4831 28.429 43.3915 22.5217 43.3915 15.2613C43.3915 8.00142 37.4831 2.09479 30.2215 2.09479C22.9628 2.09479 17.0574 8.00142 17.0574 15.2613C17.0574 22.5223 22.9628 28.429 30.2215 28.429ZM30.2215 3.8903C36.4932 3.8903 41.596 8.99135 41.596 15.2613C41.596 21.5318 36.4938 26.6334 30.2215 26.6334C23.9527 26.6334 18.8529 21.5318 18.8529 15.2613C18.8529 8.99135 23.9527 3.8903 30.2215 3.8903Z" fill="#1E4BD2"/>
</svg>
