<svg width="60" height="60" viewBox="0 0 60 60" fill="none" xmlns="http://www.w3.org/2000/svg">
<path d="M47.271 6.03584H37.769V1.9721C37.769 1.49401 37.3507 1.07568 36.8726 1.07568H22.7093C22.2312 1.07568 21.8128 1.49401 21.8128 1.9721V6.03584H11.773C9.68136 6.03584 8.00806 7.70915 8.00806 9.80078V54.8605C8.00806 56.9522 9.68136 58.6255 11.773 58.6255H47.3308C49.4224 58.6255 51.0957 56.9522 51.0957 54.8605V9.80078C51.0359 7.70915 49.3626 6.03584 47.271 6.03584ZM22.7093 17.6295H36.8726C37.3507 17.6295 37.769 17.2111 37.769 16.7331V12.8486H44.0439V51.5139H15.0001V12.9084H21.8128V16.7331C21.8128 17.2709 22.2312 17.6295 22.7093 17.6295ZM35.9762 2.86851V11.9522V15.8366H23.6057V11.9522V6.8725V2.86851H35.9762ZM49.2431 54.8008C49.2431 55.8765 48.3467 56.7729 47.271 56.7729H11.773C10.6973 56.7729 9.80089 55.8765 9.80089 54.8008V9.80078C9.80089 8.72508 10.6973 7.82867 11.773 7.82867H21.8128V11.1155H14.1037C13.6256 11.1155 13.2073 11.5338 13.2073 12.0119V52.4701C13.2073 52.9482 13.6256 53.3665 14.1037 53.3665H44.9403C45.4184 53.3665 45.8367 52.9482 45.8367 52.4701V12.0119C45.8367 11.5338 45.4184 11.1155 44.9403 11.1155H37.769V7.82867H47.271C48.3467 7.82867 49.2431 8.72508 49.2431 9.80078V54.8008Z" fill="#1E4BD2"/>
<path d="M17.2112 27.7291C17.2112 28.2071 17.6295 28.6255 18.1076 28.6255H41.1156C41.5937 28.6255 42.012 28.2071 42.012 27.7291C42.012 27.251 41.5937 26.8326 41.1156 26.8326H18.1076C17.6295 26.8326 17.2112 27.251 17.2112 27.7291Z" fill="#00AAFF"/>
<path d="M41.1156 33.1075H18.1076C17.6295 33.1075 17.2112 33.5259 17.2112 34.004C17.2112 34.482 17.6295 34.9004 18.1076 34.9004H41.1156C41.5937 34.9004 42.012 34.482 42.012 34.004C42.012 33.5259 41.5937 33.1075 41.1156 33.1075Z" fill="#00AAFF"/>
<path d="M41.1156 39.6813H18.1076C17.6295 39.6813 17.2112 40.0996 17.2112 40.5777C17.2112 41.0558 17.6295 41.4741 18.1076 41.4741H41.1156C41.5937 41.4741 42.012 41.0558 42.012 40.5777C42.012 40.0996 41.5937 39.6813 41.1156 39.6813Z" fill="#00AAFF"/>
</svg>
