<svg width="60" height="60" viewBox="0 0 60 60" fill="none" xmlns="http://www.w3.org/2000/svg">
<path d="M49.3426 5.80072H30.7895V0.896834C30.7895 0.401184 30.3883 0 29.8926 0C29.397 0 28.9958 0.401184 28.9958 0.896834V5.80072H10.4469C9.95123 5.80072 9.55005 6.20191 9.55005 6.69756V11.1524V41.5061C9.55005 42.0011 9.95123 42.4029 10.4469 42.4029H20.7497L11.4179 58.4993C11.1691 58.928 11.3156 59.4762 11.7437 59.725C11.8854 59.8069 12.0403 59.8457 12.1927 59.8457C12.5024 59.8457 12.8032 59.6855 12.9694 59.3985L22.8226 42.4029H28.9952V55.5499C28.9952 56.045 29.3964 56.4467 29.892 56.4467C30.3877 56.4467 30.7889 56.045 30.7889 55.5499V42.4029H36.9681L46.8237 59.3991C46.9899 59.6855 47.2912 59.8457 47.6003 59.8457C47.7534 59.8457 47.9082 59.8069 48.0499 59.725C48.478 59.4762 48.6239 58.9274 48.3758 58.4987L39.0427 42.4029H49.3426C49.8376 42.4029 50.2394 42.0011 50.2394 41.5061V11.1524V6.69756C50.2394 6.20191 49.8376 5.80072 49.3426 5.80072ZM48.4457 7.59439V10.2556H11.3437V7.59439H48.4457ZM48.4457 40.6092H11.3437V12.0493H48.4457V40.6092Z" fill="#1E4BD2"/>
<path fill-rule="evenodd" clip-rule="evenodd" d="M30.7895 0.896834V5.80072H28.9958V0.896834C28.9958 0.401184 29.397 0 29.8926 0C30.3883 0 30.7895 0.401184 30.7895 0.896834ZM20.7497 42.4029L11.4179 58.4993C11.1691 58.928 11.3156 59.4762 11.7437 59.725C11.8854 59.8069 12.0403 59.8457 12.1927 59.8457C12.5024 59.8457 12.8032 59.6855 12.9694 59.3985L22.8226 42.4029H20.7497ZM28.9952 42.4029V55.5499C28.9952 56.045 29.3964 56.4467 29.892 56.4467C30.3877 56.4467 30.7889 56.045 30.7889 55.5499V42.4029H28.9952ZM36.9681 42.4029L46.8237 59.3991C46.9899 59.6855 47.2912 59.8457 47.6003 59.8457C47.7534 59.8457 47.9082 59.8069 48.0499 59.725C48.478 59.4762 48.6239 58.9274 48.3758 58.4987L39.0427 42.4029H36.9681Z" fill="#00AAFF"/>
</svg>
