<svg width="60" height="60" viewBox="0 0 60 60" fill="none" xmlns="http://www.w3.org/2000/svg">
<path d="M58.099 34.2297C56.5307 28.0277 55.0158 27.4337 49.996 26.3346L49.2059 26.1386C45.9327 25.4079 40.0455 20.994 38.1089 19.5386C36.0677 18.0307 33.5951 17.2204 31.0574 17.2277H21.1307C18.594 17.2277 18.0119 17.5544 17.2099 18.3624L17.1148 18.4693L14.0673 22.6931C13.6634 23.103 13.3247 23.5129 13.0218 23.8812C12.2792 24.7841 11.7861 25.3841 10.8772 25.5564L6.07127 26.1505C3.79008 26.5841 2.37622 27.9208 2.37622 29.703V38.3168C2.37622 38.5532 2.4701 38.7798 2.63721 38.9469C2.80433 39.114 3.03098 39.2079 3.26731 39.2079H7.77622C8.04785 40.3862 8.7109 41.4377 9.65713 42.1906C10.6034 42.9435 11.7769 43.3535 12.9861 43.3535C14.1954 43.3535 15.3689 42.9435 16.3151 42.1906C17.2613 41.4377 17.9244 40.3862 18.196 39.2079H38.6673C38.9389 40.3862 39.602 41.4377 40.5482 42.1906C41.4945 42.9435 42.668 43.3535 43.8772 43.3535C45.0864 43.3535 46.26 42.9435 47.2062 42.1906C48.1524 41.4377 48.8155 40.3862 49.0871 39.2079H54.2317C54.8394 39.2066 55.4389 39.0667 55.9845 38.799C56.5301 38.5312 57.0074 38.1426 57.3803 37.6626C57.7531 37.1827 58.0116 36.624 58.1362 36.0292C58.2607 35.4343 58.248 34.8189 58.099 34.2297ZM14.4 25.0099C14.703 24.6416 14.994 24.2614 15.3802 23.899L15.4455 23.7624L18.4931 19.5386C18.8792 19.1525 19.1346 18.9802 21.101 18.9802H31.0218C33.1767 18.9789 35.2746 19.6726 37.0039 20.9584C39.5822 22.895 41.7564 24.398 43.6218 25.5148H13.9188L14.4 25.0099ZM12.9921 41.5841C12.2871 41.5841 11.598 41.3751 11.0118 40.9834C10.4257 40.5918 9.9688 40.0351 9.69903 39.3838C9.42925 38.7325 9.35866 38.0158 9.49619 37.3244C9.63373 36.633 9.9732 35.9979 10.4717 35.4994C10.9702 35.0009 11.6053 34.6615 12.2967 34.5239C12.9881 34.3864 13.7048 34.457 14.3561 34.7268C15.0074 34.9965 15.5641 35.4534 15.9557 36.0395C16.3474 36.6257 16.5564 37.3148 16.5564 38.0198C16.5564 38.9651 16.1809 39.8717 15.5124 40.5402C14.844 41.2086 13.9374 41.5841 12.9921 41.5841ZM43.8832 41.5841C43.1782 41.5841 42.4891 41.3751 41.9029 40.9834C41.3167 40.5918 40.8599 40.0351 40.5901 39.3838C40.3203 38.7325 40.2498 38.0158 40.3873 37.3244C40.5248 36.633 40.8643 35.9979 41.3628 35.4994C41.8613 35.0009 42.4964 34.6615 43.1878 34.5239C43.8792 34.3864 44.5959 34.457 45.2472 34.7268C45.8985 34.9965 46.4552 35.4534 46.8468 36.0395C47.2385 36.6257 47.4475 37.3148 47.4475 38.0198C47.4475 38.9651 47.072 39.8717 46.4035 40.5402C45.7351 41.2086 44.8285 41.5841 43.8832 41.5841ZM55.9723 36.5762C55.7666 36.8417 55.5027 37.0564 55.2009 37.2036C54.8991 37.3509 54.5675 37.4269 54.2317 37.4257H49.1881C49.0369 36.1232 48.4124 34.9217 47.4332 34.0495C46.454 33.1774 45.1885 32.6955 43.8772 32.6955C42.5659 32.6955 41.3004 33.1774 40.3212 34.0495C39.342 34.9217 38.7175 36.1232 38.5663 37.4257H18.297C18.1459 36.1232 17.5213 34.9217 16.5421 34.0495C15.5629 33.1774 14.2974 32.6955 12.9861 32.6955C11.6749 32.6955 10.4093 33.1774 9.43013 34.0495C8.45094 34.9217 7.82639 36.1232 7.67523 37.4257H4.1584V29.703C4.1584 28.4495 5.87523 28.0277 6.35048 27.9208L11.0317 27.3267H47.0732C47.6354 27.5742 48.2177 27.7729 48.8138 27.9208L49.6158 28.099C54.1782 29.097 55.0039 29.2871 56.3703 34.6871C56.4512 35.0116 56.4574 35.3502 56.3885 35.6774C56.3195 36.0047 56.1772 36.312 55.9723 36.5762Z" fill="#1E4BD2"/>
<path fill-rule="evenodd" clip-rule="evenodd" d="M49.1881 37.4257L49.0871 39.2079C48.8155 40.3862 48.1524 41.4377 47.2062 42.1906C46.26 42.9435 45.0864 43.3535 43.8772 43.3535C42.668 43.3535 41.4945 42.9435 40.5482 42.1906C39.602 41.4377 38.9389 40.3862 38.6673 39.2079L38.5663 37.4257C38.7175 36.1232 39.342 34.9217 40.3212 34.0495C41.3004 33.1774 42.5659 32.6955 43.8772 32.6955C45.1885 32.6955 46.454 33.1774 47.4332 34.0495C48.4124 34.9217 49.0369 36.1232 49.1881 37.4257ZM18.297 37.4257L18.196 39.2079C17.9244 40.3862 17.2613 41.4377 16.3151 42.1906C15.3689 42.9435 14.1954 43.3535 12.9861 43.3535C11.7769 43.3535 10.6034 42.9435 9.65713 42.1906C8.7109 41.4377 8.04785 40.3862 7.77622 39.2079L7.67523 37.4257C7.82639 36.1232 8.45094 34.9217 9.43013 34.0495C10.4093 33.1774 11.6749 32.6955 12.9861 32.6955C14.2974 32.6955 15.5629 33.1774 16.5421 34.0495C17.5213 34.9217 18.1459 36.1232 18.297 37.4257ZM12.9921 41.5841C12.2871 41.5841 11.598 41.3751 11.0118 40.9834C10.4257 40.5918 9.9688 40.0351 9.69903 39.3838C9.42925 38.7325 9.35866 38.0158 9.49619 37.3244C9.63373 36.633 9.9732 35.9979 10.4717 35.4994C10.9702 35.0009 11.6053 34.6615 12.2967 34.5239C12.9881 34.3864 13.7048 34.457 14.3561 34.7268C15.0074 34.9965 15.5641 35.4534 15.9557 36.0395C16.3474 36.6257 16.5564 37.3148 16.5564 38.0198C16.5564 38.9651 16.1809 39.8717 15.5124 40.5402C14.844 41.2086 13.9374 41.5841 12.9921 41.5841ZM43.8832 41.5841C43.1782 41.5841 42.4891 41.3751 41.9029 40.9834C41.3167 40.5918 40.8599 40.0351 40.5901 39.3838C40.3203 38.7325 40.2498 38.0158 40.3873 37.3244C40.5248 36.633 40.8643 35.9979 41.3628 35.4994C41.8613 35.0009 42.4964 34.6615 43.1878 34.5239C43.8792 34.3864 44.5959 34.457 45.2472 34.7268C45.8985 34.9965 46.4552 35.4534 46.8468 36.0395C47.2385 36.6257 47.4475 37.3148 47.4475 38.0198C47.4475 38.9651 47.072 39.8717 46.4035 40.5402C45.7351 41.2086 44.8285 41.5841 43.8832 41.5841Z" fill="#00AAFF"/>
</svg>
