<svg width="60" height="60" viewBox="0 0 60 60" fill="none" xmlns="http://www.w3.org/2000/svg">
<path d="M53.8858 43.8H44.3998V19.2C44.3998 17.2904 43.6413 15.4591 42.291 14.1088C40.9408 12.7586 39.1094 12 37.1998 12H11.0998C10.9618 12 10.8238 11.964 10.6798 11.952C9.68178 11.8889 8.68131 12.0297 7.73948 12.366C6.79765 12.7023 5.93422 13.227 5.20185 13.908C4.52233 14.5373 3.98023 15.3002 3.60956 16.149C3.23888 16.9977 3.04765 17.9139 3.04785 18.84C3.04785 19.0787 3.14267 19.3076 3.31146 19.4764C3.48024 19.6452 3.70916 19.74 3.94785 19.74H15.5998V44.226C15.5699 46.0789 16.2478 47.8734 17.4954 49.2437C18.743 50.6139 20.4663 51.4566 22.3138 51.6H22.3498H22.4938H47.6098C48.5357 51.6199 49.4564 51.4572 50.3194 51.1212C51.1824 50.7852 51.9707 50.2824 52.6393 49.6416C53.308 49.0009 53.8438 48.2347 54.2162 47.3868C54.5886 46.5389 54.7903 45.6259 54.8098 44.7C54.8099 44.5798 54.7858 44.4607 54.7391 44.3499C54.6924 44.2392 54.6239 44.1389 54.5378 44.055C54.4517 43.9711 54.3496 43.9053 54.2376 43.8615C54.1256 43.8177 54.006 43.7968 53.8858 43.8ZM4.93185 17.94C5.13111 16.8966 5.65881 15.9442 6.43785 15.222C7.335 14.4018 8.47853 13.9017 9.68985 13.8C9.75961 13.8083 9.83009 13.8083 9.89985 13.8H11.0398C12.1005 13.9771 13.0846 14.465 13.8676 15.2021C14.6506 15.9391 15.1971 16.892 15.4378 17.94H4.93185ZM22.4218 49.8C21.0327 49.6843 19.7399 49.0433 18.8068 48.0077C17.8738 46.972 17.3706 45.6197 17.3998 44.226V19.314C17.4037 18.2788 17.1924 17.254 16.7792 16.3048C16.3661 15.3556 15.7601 14.5026 14.9998 13.8H37.1998C38.632 13.8 40.0055 14.3689 41.0182 15.3816C42.0309 16.3943 42.5998 17.7678 42.5998 19.2V43.8H29.0518C28.8132 43.8 28.5842 43.8948 28.4155 44.0636C28.2467 44.2324 28.1518 44.4613 28.1518 44.7C28.1478 45.377 28.0045 46.0459 27.731 46.6652C27.4575 47.2845 27.0595 47.841 26.5618 48.3C26.0104 48.819 25.3587 49.2197 24.6468 49.4776C23.9349 49.7356 23.1777 49.8453 22.4218 49.8ZM47.6218 49.8H27.5998L27.7858 49.632C28.9336 48.5725 29.678 47.1473 29.8918 45.6H52.9018C52.6433 46.805 51.9742 47.8827 51.0089 48.6488C50.0435 49.4149 48.842 49.8219 47.6098 49.8H47.6218Z" fill="#1E4BD2"/>
<path d="M21.9 25.2H38.1C38.3387 25.2 38.5676 25.1052 38.7364 24.9364C38.9052 24.7676 39 24.5387 39 24.3C39 24.0613 38.9052 23.8324 38.7364 23.6636C38.5676 23.4948 38.3387 23.4 38.1 23.4H21.9C21.6613 23.4 21.4324 23.4948 21.2636 23.6636C21.0948 23.8324 21 24.0613 21 24.3C21 24.5387 21.0948 24.7676 21.2636 24.9364C21.4324 25.1052 21.6613 25.2 21.9 25.2Z" fill="#00AAFF"/>
<path d="M21.9 30.6H38.1C38.3387 30.6 38.5676 30.5052 38.7364 30.3364C38.9052 30.1676 39 29.9387 39 29.7C39 29.4613 38.9052 29.2324 38.7364 29.0636C38.5676 28.8948 38.3387 28.8 38.1 28.8H21.9C21.6613 28.8 21.4324 28.8948 21.2636 29.0636C21.0948 29.2324 21 29.4613 21 29.7C21 29.9387 21.0948 30.1676 21.2636 30.3364C21.4324 30.5052 21.6613 30.6 21.9 30.6Z" fill="#00AAFF"/>
<path d="M31.2 35.1C31.2 34.8613 31.1052 34.6324 30.9364 34.4636C30.7676 34.2948 30.5387 34.2 30.3 34.2H21.9C21.6613 34.2 21.4324 34.2948 21.2636 34.4636C21.0948 34.6324 21 34.8613 21 35.1C21 35.3387 21.0948 35.5676 21.2636 35.7364C21.4324 35.9052 21.6613 36 21.9 36H30.3C30.5387 36 30.7676 35.9052 30.9364 35.7364C31.1052 35.5676 31.2 35.3387 31.2 35.1Z" fill="#00AAFF"/>
</svg>
