<svg width="60" height="60" viewBox="0 0 60 60" fill="none" xmlns="http://www.w3.org/2000/svg">
<path d="M10.8506 42.1055C10.8506 45.1022 13.2887 47.5409 16.286 47.5409C19.2833 47.5409 21.7215 45.1022 21.7215 42.1055C21.7215 39.1088 19.2833 36.67 16.286 36.67C13.2887 36.67 10.8506 39.1082 10.8506 42.1055ZM19.9349 42.1055C19.9349 44.1172 18.2977 45.7543 16.286 45.7543C14.2743 45.7543 12.6372 44.1172 12.6372 42.1055C12.6372 40.0938 14.2743 38.4566 16.286 38.4566C18.2977 38.4566 19.9349 40.0938 19.9349 42.1055Z" fill="#00AAFF"/>
<path d="M53.7284 21.8073C53.3604 21.4791 52.7964 21.5107 52.4671 21.8787L39.4922 36.4115L32.8127 29.732C32.4637 29.3831 31.8986 29.3831 31.5496 29.732C31.2006 30.081 31.2006 30.6462 31.5496 30.9952L38.8979 38.3429C39.0658 38.5108 39.2927 38.6043 39.5297 38.6043C39.5381 38.6043 39.5464 38.6043 39.5547 38.6037C39.8001 38.5966 40.0324 38.4894 40.1961 38.3059L53.8005 23.068C54.1286 22.7006 54.0965 22.1354 53.7284 21.8073Z" fill="#00AAFF"/>
<path d="M39.8377 40.8382C39.344 40.8382 38.9444 41.2383 38.9444 41.7315V50.621H7.31321V8.93363H38.9444V27.6495C38.9444 28.1426 39.344 28.5428 39.8377 28.5428C40.3314 28.5428 40.731 28.1426 40.731 27.6495V8.04033C40.731 7.54723 40.3314 7.14703 39.8377 7.14703H6.41991C5.92621 7.14703 5.52661 7.54723 5.52661 8.04033V51.5143C5.52661 52.0074 5.92621 52.4076 6.41991 52.4076H39.8377C40.3314 52.4076 40.731 52.0074 40.731 51.5143V41.7315C40.731 41.2383 40.3314 40.8382 39.8377 40.8382Z" fill="#1E4BD2"/>
<path d="M29.3955 19.1917C29.8892 19.1917 30.2888 18.7915 30.2888 18.2984C30.2888 17.8053 29.8892 17.4051 29.3955 17.4051H11.4485C10.9548 17.4051 10.5552 17.8053 10.5552 18.2984C10.5552 18.7915 10.9548 19.1917 11.4485 19.1917H29.3955Z" fill="#00AAFF"/>
<path d="M30.5086 26.2452C30.5086 25.7521 30.109 25.3519 29.6153 25.3519H11.6731C11.1794 25.3519 10.7798 25.7521 10.7798 26.2452C10.7798 26.7383 11.1794 27.1385 11.6731 27.1385H29.6153C30.109 27.1385 30.5086 26.7383 30.5086 26.2452Z" fill="#00AAFF"/>
</svg>
