<svg width="60" height="60" viewBox="0 0 60 60" fill="none" xmlns="http://www.w3.org/2000/svg">
<path d="M45.9561 20.3187V18.7052C47.988 17.51 49.3027 15.2988 49.3027 12.9084V10.0398C49.3027 6.33467 46.3147 3.34662 42.6095 3.34662C38.9043 3.34662 35.8565 6.33467 35.8565 10.0398V12.9084C35.8565 15.239 37.0518 17.3904 39.0836 18.5857V20.3187C38.1872 20.5578 37.3506 20.9163 36.5139 21.3944C35.1992 18.3466 32.1514 16.1952 28.6255 16.1952C25.1593 16.1952 22.231 18.2271 20.8565 21.2151C20.0796 20.8566 19.3028 20.498 18.5259 20.3187V18.7052C20.5577 17.51 21.8725 15.2988 21.8725 12.9084V10.0398C21.8725 6.33467 18.8844 3.34662 15.1792 3.34662C11.4741 3.34662 8.48602 6.33467 8.48602 10.0398V12.9084C8.48602 15.239 9.68124 17.3904 11.7131 18.5857V20.3187C6.33463 21.8725 2.68921 26.7132 2.68921 32.3307C2.68921 32.8088 3.10754 33.2271 3.58562 33.2271H21.2749C21.3346 33.2271 21.3944 33.2271 21.4541 33.2271C22.1713 34.3626 23.1872 35.3187 24.3824 36.0359V38.7251C17.2709 40.6375 12.4302 47.0319 12.4302 54.4422C12.4302 54.9203 12.8486 55.3386 13.3267 55.3386H44.1035C44.5816 55.3386 45 54.9203 45 54.4422C45 47.0916 39.9203 40.5777 32.8685 38.7251V36.1554C34.1235 35.4383 35.1394 34.4821 35.9163 33.2869H54.2629C54.741 33.2869 55.1593 32.8685 55.1593 32.3904C55.0996 26.7729 51.2749 21.8128 45.9561 20.3187ZM4.48204 31.494C4.8406 26.8327 8.18722 23.008 12.7888 21.9323C13.2071 21.8128 13.5059 21.4542 13.5059 21.0359V18.0478C13.5059 17.6892 13.3267 17.3904 13.0279 17.2709C11.3545 16.4343 10.2788 14.761 10.2788 12.9084V10.0398C10.2788 7.3506 12.49 5.13945 15.1792 5.13945C17.8685 5.13945 20.0796 7.3506 20.0796 10.0398V12.9084C20.0796 14.761 18.9442 16.494 17.2709 17.3307C16.9721 17.4502 16.733 17.8088 16.733 18.1673V21.0359C16.733 21.4542 17.0318 21.8128 17.4502 21.9323C18.4661 22.1713 19.4223 22.5299 20.3187 23.008C20.1992 23.6056 20.1394 24.2032 20.1394 24.8606V28.6853C20.1394 29.6414 20.3187 30.5976 20.6175 31.494H4.48204ZM31.5537 34.7809C31.2549 34.9004 31.0159 35.259 31.0159 35.6175V39.4422C31.0159 39.8606 31.3147 40.2191 31.733 40.3386C38.0677 41.7132 42.729 47.2112 43.1474 53.6056H14.2231C14.5816 47.2112 19.1235 41.8327 25.4581 40.3984C25.8765 40.2789 26.1753 39.9203 26.1753 39.502V35.5578C26.1753 35.1992 25.996 34.9004 25.6972 34.7809C23.3665 33.6454 21.9322 31.3147 21.9322 28.745V24.9203C21.9322 21.1554 24.98 18.1673 28.6852 18.1673C32.3904 18.1673 35.4382 21.2151 35.4382 24.9203V28.6853C35.4382 31.255 33.9442 33.6454 31.5537 34.7809ZM36.7529 31.494C37.0518 30.5976 37.231 29.6414 37.231 28.6853V24.8606C37.231 24.3227 37.1713 23.7251 37.0518 23.247C38.0079 22.6494 39.0836 22.2311 40.1593 21.992C40.5776 21.8725 40.8765 21.5139 40.8765 21.0956V18.1076C40.8765 17.749 40.6972 17.4502 40.3984 17.3307C38.7251 16.494 37.6494 14.8207 37.6494 12.9681V10.0996C37.6494 7.41036 39.8605 5.19921 42.5498 5.19921C45.239 5.19921 47.4502 7.41036 47.4502 10.0996V12.9681C47.4502 14.8207 46.3147 16.5538 44.6414 17.3904C44.3426 17.51 44.1035 17.8685 44.1035 18.2271V21.0956C44.1035 21.5139 44.4023 21.8725 44.8207 21.992C49.4223 23.008 52.8286 26.9522 53.247 31.5538L36.7529 31.494Z" fill="#1E4BD2"/>
<path fill-rule="evenodd" clip-rule="evenodd" d="M45.9561 18.7052V20.3187C51.2749 21.8128 55.0996 26.7729 55.1593 32.3904C55.1593 32.8685 54.741 33.2869 54.2629 33.2869H35.9163L36.7529 31.494L53.247 31.5538C52.8286 26.9522 49.4223 23.008 44.8207 21.992C44.4023 21.8725 44.1035 21.5139 44.1035 21.0956V18.2271C44.1035 17.8685 44.3426 17.51 44.6414 17.3904C46.3147 16.5538 47.4502 14.8207 47.4502 12.9681V10.0996C47.4502 7.41036 45.239 5.19921 42.5498 5.19921C39.8605 5.19921 37.6494 7.41036 37.6494 10.0996V12.9681C37.6494 14.8207 38.7251 16.494 40.3984 17.3307C40.6972 17.4502 40.8765 17.749 40.8765 18.1076V21.0956C40.8765 21.5139 40.5776 21.8725 40.1593 21.992C39.0836 22.2311 38.0079 22.6494 37.0518 23.247L36.5139 21.3944C37.3506 20.9163 38.1872 20.5578 39.0836 20.3187V18.5857C37.0518 17.3904 35.8565 15.239 35.8565 12.9084V10.0398C35.8565 6.33467 38.9043 3.34662 42.6095 3.34662C46.3147 3.34662 49.3027 6.33467 49.3027 10.0398V12.9084C49.3027 15.2988 47.988 17.51 45.9561 18.7052ZM21.4541 33.2271L20.6175 31.494H4.48204C4.8406 26.8327 8.18722 23.008 12.7888 21.9323C13.2071 21.8128 13.5059 21.4542 13.5059 21.0359V18.0478C13.5059 17.6892 13.3267 17.3904 13.0279 17.2709C11.3545 16.4343 10.2788 14.761 10.2788 12.9084V10.0398C10.2788 7.3506 12.49 5.13945 15.1792 5.13945C17.8685 5.13945 20.0796 7.3506 20.0796 10.0398V12.9084C20.0796 14.761 18.9442 16.494 17.2709 17.3307C16.9721 17.4502 16.733 17.8088 16.733 18.1673V21.0359C16.733 21.4542 17.0318 21.8128 17.4502 21.9323C18.4661 22.1713 19.4223 22.5299 20.3187 23.008L20.8565 21.2151C20.0796 20.8566 19.3028 20.498 18.5259 20.3187V18.7052C20.5577 17.51 21.8725 15.2988 21.8725 12.9084V10.0398C21.8725 6.33467 18.8844 3.34662 15.1792 3.34662C11.4741 3.34662 8.48602 6.33467 8.48602 10.0398V12.9084C8.48602 15.239 9.68124 17.3904 11.7131 18.5857V20.3187C6.33463 21.8725 2.68921 26.7132 2.68921 32.3307C2.68921 32.8088 3.10754 33.2271 3.58562 33.2271H21.2749H21.4541Z" fill="#00AAFF"/>
</svg>
